<svg width="87" height="61" viewBox="0 0 87 61" fill="none" xmlns="http://www.w3.org/2000/svg">
<path d="M73.4939 5.0447C68.0133 2.69312 62.0793 0.986322 55.8981 0.000174465C55.8439 -0.00142083 55.79 0.0079403 55.7401 0.0275998C55.6903 0.0472594 55.6457 0.0767399 55.6096 0.113962C54.8679 1.36561 54.0025 2.99655 53.4256 4.2482C46.8694 3.33791 40.2019 3.33791 33.6457 4.2482C33.0688 2.95862 32.2034 1.36561 31.4205 0.113962C31.3793 0.038104 31.2556 0.000174465 31.132 0.000174465C24.9508 0.986322 19.058 2.69312 13.5362 5.0447C13.495 5.0447 13.4537 5.08263 13.4125 5.12056C2.20393 20.5576 -0.886673 35.5773 0.638027 50.4454C0.638027 50.5213 0.679235 50.5971 0.761651 50.6351C8.17911 55.6417 15.3081 58.676 22.3547 60.6862C22.4783 60.7241 22.6019 60.6862 22.6431 60.6103C24.2915 58.5243 25.775 56.3244 27.0524 54.0107C27.1348 53.859 27.0524 53.7073 26.8876 53.6694C24.5387 52.8349 22.3135 51.8488 20.1295 50.7109C19.9646 50.6351 19.9646 50.4075 20.0882 50.2937C20.5415 49.9903 20.9948 49.6489 21.4481 49.3455C21.5305 49.2696 21.6542 49.2696 21.7366 49.3076C35.9122 55.2624 51.2004 55.2624 65.2111 49.3076C65.2935 49.2696 65.4171 49.2696 65.4996 49.3455C65.9529 49.6869 66.4061 49.9903 66.8594 50.3316C67.0243 50.4454 67.0243 50.673 66.8182 50.7489C64.6754 51.9246 62.409 52.8729 60.0601 53.7073C59.8953 53.7452 59.8541 53.9349 59.8953 54.0487C61.2139 56.3623 62.6974 58.5622 64.3045 60.6483C64.4282 60.6862 64.5518 60.7241 64.6754 60.6862C71.7632 58.676 78.8922 55.6417 86.3096 50.6351C86.3921 50.5971 86.4333 50.5213 86.4333 50.4454C88.2464 33.2637 83.4251 18.3577 73.6588 5.12056C73.6176 5.08263 73.5763 5.0447 73.4939 5.0447ZM29.1952 41.3805C24.9508 41.3805 21.4069 37.7772 21.4069 33.3396C21.4069 28.9019 24.8684 25.2987 29.1952 25.2987C33.5633 25.2987 37.0248 28.9398 36.9836 33.3396C36.9836 37.7772 33.5221 41.3805 29.1952 41.3805ZM57.9173 41.3805C53.6728 41.3805 50.1289 37.7772 50.1289 33.3396C50.1289 28.9019 53.5904 25.2987 57.9173 25.2987C62.2853 25.2987 65.7468 28.9398 65.7056 33.3396C65.7056 37.7772 62.2853 41.3805 57.9173 41.3805Z" fill="#153375"/>
</svg>
