<svg width="87" height="66" viewBox="0 0 87 66" fill="none" xmlns="http://www.w3.org/2000/svg">
<path d="M86.6589 7.6515C83.4739 8.99051 80.0406 9.87044 76.4833 10.2913C80.1233 8.26362 82.9361 5.04999 84.2598 1.18598C80.8265 3.09886 77.021 4.43787 73.0086 5.20302C69.7408 1.91288 65.1494 0 59.9375 0C50.2168 0 42.2748 7.34544 42.2748 16.4125C42.2748 17.7132 42.4403 18.9757 42.7298 20.1617C28.004 19.4731 14.8915 12.931 6.16355 3.02234C4.63306 5.43257 3.76441 8.26362 3.76441 11.2477C3.76441 16.9481 6.86675 21.9981 11.665 24.8674C8.72815 24.8674 5.99809 24.1022 3.59895 22.9545V23.0693C3.59895 31.0268 9.7209 37.6836 17.8284 39.1757C15.2254 39.8345 12.4927 39.9262 9.845 39.4435C10.9685 42.7049 13.1688 45.5586 16.1366 47.6035C19.1044 49.6485 22.6905 50.7818 26.3908 50.8442C20.1184 55.4368 12.3434 57.9192 4.34351 57.8836C2.93712 57.8836 1.53072 57.8071 0.124329 57.6541C7.98359 62.3215 17.332 65.0378 27.3422 65.0378C59.9375 65.0378 77.8483 40.0173 77.8483 18.3253C77.8483 17.5985 77.8483 16.9098 77.8069 16.1829C81.2816 13.8875 84.2598 10.9799 86.6589 7.6515Z" fill="#153375"/>
</svg>
