<svg width="19" height="14" viewBox="0 0 19 14" fill="none" xmlns="http://www.w3.org/2000/svg">
<path d="M16.0764 1.16349C14.873 0.621128 13.5701 0.227481 12.213 4.02379e-05C12.2011 -0.000327694 12.1892 0.00183131 12.1783 0.0063655C12.1673 0.0108997 12.1576 0.0176989 12.1496 0.0262836C11.9868 0.314958 11.7968 0.691109 11.6701 0.979784C10.2306 0.769839 8.76663 0.769839 7.32711 0.979784C7.20044 0.682362 7.01044 0.314958 6.83853 0.0262836C6.82948 0.00878813 6.80234 4.02379e-05 6.77519 4.02379e-05C5.41801 0.227481 4.12417 0.621128 2.91175 1.16349C2.9027 1.16349 2.89366 1.17223 2.88461 1.18098C0.423589 4.7413 -0.255001 8.20539 0.0797697 11.6345C0.0797697 11.652 0.0888175 11.6695 0.106913 11.6782C1.73553 12.8329 3.30081 13.5327 4.848 13.9964C4.87514 14.0051 4.90228 13.9964 4.91133 13.9789C5.27325 13.4978 5.59897 12.9904 5.87945 12.4568C5.89755 12.4218 5.87945 12.3868 5.84326 12.3781C5.32753 12.1856 4.83895 11.9582 4.35941 11.6957C4.32322 11.6782 4.32322 11.6257 4.35036 11.5995C4.44989 11.5295 4.54942 11.4508 4.64894 11.3808C4.66704 11.3633 4.69418 11.3633 4.71228 11.3721C7.82474 12.7455 11.1815 12.7455 14.2578 11.3721C14.2759 11.3633 14.303 11.3633 14.3211 11.3808C14.4206 11.4595 14.5202 11.5295 14.6197 11.6083C14.6559 11.6345 14.6559 11.687 14.6106 11.7045C14.1402 11.9757 13.6425 12.1943 13.1268 12.3868C13.0906 12.3955 13.0816 12.4393 13.0906 12.4655C13.3801 12.9991 13.7059 13.5065 14.0587 13.9876C14.0859 13.9964 14.113 14.0051 14.1402 13.9964C15.6964 13.5327 17.2617 12.8329 18.8903 11.6782C18.9084 11.6695 18.9174 11.652 18.9174 11.6345C19.3155 7.67178 18.2569 4.23393 16.1126 1.18098C16.1035 1.17223 16.0945 1.16349 16.0764 1.16349ZM6.34994 9.54379C5.41801 9.54379 4.6399 8.71276 4.6399 7.68928C4.6399 6.6658 5.39992 5.83476 6.34994 5.83476C7.30902 5.83476 8.06904 6.67454 8.05999 7.68928C8.05999 8.71276 7.29997 9.54379 6.34994 9.54379ZM12.6563 9.54379C11.7244 9.54379 10.9463 8.71276 10.9463 7.68928C10.9463 6.6658 11.7063 5.83476 12.6563 5.83476C13.6154 5.83476 14.3754 6.67454 14.3664 7.68928C14.3664 8.71276 13.6154 9.54379 12.6563 9.54379Z" fill="#153375"/>
</svg>
