<svg width="19" height="15" viewBox="0 0 19 15" fill="none" xmlns="http://www.w3.org/2000/svg">
<path d="M19 1.76471C18.3007 2.07353 17.5468 2.27647 16.7658 2.37353C17.565 1.90588 18.1826 1.16471 18.4732 0.273529C17.7194 0.714706 16.8838 1.02353 16.0029 1.2C15.2854 0.441177 14.2772 0 13.1329 0C10.9986 0 9.25478 1.69412 9.25478 3.78529C9.25478 4.08529 9.29111 4.37647 9.35469 4.65C6.12142 4.49118 3.24235 2.98235 1.326 0.697059C0.989962 1.25294 0.799235 1.90588 0.799235 2.59412C0.799235 3.90882 1.4804 5.07353 2.53394 5.73529C1.8891 5.73529 1.28968 5.55882 0.762907 5.29412V5.32059C0.762907 7.15588 2.10707 8.69118 3.88719 9.03529C3.31567 9.18724 2.71567 9.20839 2.13432 9.09706C2.381 9.84925 2.86411 10.5074 3.51574 10.9791C4.16737 11.4507 4.95476 11.7121 5.76721 11.7265C4.39001 12.7857 2.68288 13.3582 0.926386 13.35C0.617591 13.35 0.308795 13.3324 0 13.2971C1.72562 14.3735 3.7782 15 5.9761 15C13.1329 15 17.0655 9.22941 17.0655 4.22647C17.0655 4.05882 17.0655 3.9 17.0564 3.73235C17.8193 3.20294 18.4732 2.53235 19 1.76471Z" fill="#153375"/>
</svg>
